<svg id="Capa_1" enable-background="new 0 0 512 512" height="512" viewBox="0 0 512 512" width="512" xmlns="http://www.w3.org/2000/svg"><g><path d="m158.067 387.914c.484-4.114-2.457-7.841-6.571-8.326-4.112-.48-7.841 2.458-8.325 6.571l-5.385 45.717-29.161-15.376c-1.37-.722-2.377-1.935-2.834-3.415-.458-1.48-.313-3.05.41-4.42l44.187-83.783-3.382 28.713c-.484 4.114 2.457 7.841 6.571 8.326 4.111.48 7.841-2.458 8.325-6.571l12.678-107.64c.034-.291.052-.584.052-.877 0-17.709 14.407-32.116 32.115-32.116h105.799c17.708 0 32.115 14.407 32.115 32.116 0 .293.018.586.052.877l15.586 132.32c.449 3.816 3.689 6.623 7.439 6.623.293 0 .589-.017.887-.052 4.114-.485 7.056-4.212 6.571-8.326l-8.173-69.386c34.657-30.98 54.456-75.091 54.456-121.674 0-35.873-11.419-69.911-33.023-98.432-20.176-26.637-48.544-46.753-80.181-56.938-8.56-18.763-27.485-31.845-49.42-31.845h-1.09c-21.935 0-40.86 13.082-49.419 31.846-32.231 10.375-60.976 30.992-81.242 58.354-2.465 3.329-1.765 8.025 1.563 10.491 1.343.994 2.906 1.474 4.458 1.474 2.295 0 4.562-1.05 6.033-3.037 16.447-22.207 39.038-39.516 64.536-49.671-.142 1.596-.227 3.209-.227 4.841v1.09c0 7.376 1.485 14.411 4.161 20.829-19.667 8.973-36.538 22.95-49.12 40.809-14.524 20.617-22.202 44.889-22.202 70.192 0 25.275 7.63 49.386 22.057 69.948l-4.176 35.458c-28.143-27.759-44.046-65.446-44.046-105.406 0-21.172 4.37-41.615 12.988-60.759 1.7-3.777.017-8.217-3.76-9.918-3.776-1.699-8.218-.018-9.918 3.76-9.496 21.092-14.311 43.606-14.311 66.916 0 44.372 17.8 86.203 49.273 116.84l-51.481 97.612c-2.592 4.915-3.115 10.544-1.473 15.852 1.643 5.308 5.253 9.658 10.168 12.249l34.277 18.073-1.215 10.319c-2.786 23.646 11.954 46.293 34.285 52.68 2.686.769 5.635 1.159 8.76 1.159 13.318 0 20.21-6.81 25.747-12.281 4.846-4.788 8.047-7.952 15.205-7.952s10.359 3.163 15.205 7.951c5.539 5.471 12.431 12.281 25.75 12.281 13.318 0 20.21-6.81 25.748-12.282 4.846-4.788 8.047-7.951 15.205-7.951 7.16 0 10.361 3.164 15.208 7.952 5.538 5.471 12.431 12.281 25.75 12.281 3.121 0 6.066-.387 8.751-1.151 22.344-6.357 37.094-28.983 34.309-52.63l-5.616-47.678c-.484-4.114-4.235-7.049-8.325-6.571-4.114.485-7.056 4.212-6.571 8.326l5.616 47.678c1.933 16.415-8.178 32.083-23.518 36.448-1.369.389-2.889.579-4.646.579-7.159 0-10.361-3.163-15.207-7.952-5.538-5.472-12.431-12.281-25.751-12.281-13.318 0-20.21 6.81-25.748 12.282-4.846 4.788-8.047 7.951-15.205 7.951s-10.36-3.164-15.206-7.952c-5.538-5.472-12.43-12.281-25.748-12.281s-20.211 6.81-25.748 12.282c-4.846 4.788-8.047 7.951-15.204 7.951-1.753 0-3.268-.19-4.634-.581-15.34-4.387-25.449-20.08-23.515-36.503zm218.432-290.072c19.613 25.894 29.98 56.799 29.98 89.375 0 38.67-15.034 75.459-41.657 102.984l-4.287-36.4c12.935-19.818 19.78-42.79 19.78-66.585 0-25.303-7.678-49.575-22.202-70.192-12.582-17.858-29.452-31.836-49.12-40.809 2.676-6.418 4.161-13.453 4.161-20.829v-1.09c0-1.632-.085-3.244-.227-4.839 24.985 9.959 47.233 26.815 63.572 48.385zm-118.734-82.842h1.09c21.669 0 39.298 17.629 39.298 39.297v1.09c0 21.668-17.629 39.297-39.298 39.297h-1.09c-21.669 0-39.298-17.629-39.298-39.297v-1.09c0-21.668 17.629-39.297 39.298-39.297zm-86.994 110.665c11.353-16.114 26.683-28.62 44.563-36.456 9.958 12.467 25.273 20.476 42.431 20.476h1.09c17.159 0 32.474-8.01 42.431-20.476 17.88 7.836 33.21 20.342 44.563 36.456 12.734 18.074 19.465 39.359 19.465 61.553 0 14.819-3.021 29.275-8.829 42.632-6.831-17.609-23.946-30.131-43.938-30.131h-105.799c-21.237 0-39.227 14.13-45.09 33.479-6.803-14.248-10.351-29.842-10.351-45.98-.001-22.195 6.73-43.479 19.464-61.553z"/><path d="m208.863 283.044-10.666 128c-.345 4.127 2.723 7.753 6.85 8.097.212.018.423.026.632.026 3.859 0 7.139-2.962 7.465-6.878l10.666-128c.345-4.128-2.723-7.753-6.851-8.097-4.127-.349-7.752 2.723-8.096 6.852z"/><path d="m304.755 329.504c-4.14.137-7.385 3.604-7.248 7.744l3.333 100.667c.135 4.056 3.464 7.252 7.491 7.252.084 0 .169-.001.253-.004 4.14-.137 7.385-3.604 7.248-7.744l-3.332-100.667c-.138-4.14-3.627-7.373-7.745-7.248z"/></g></svg>