<svg id="Capa_1" enable-background="new 0 0 512 512" height="512" viewBox="0 0 612 612" width="512" xmlns="http://www.w3.org/2000/svg"><g><path d="m504.063 155.352-240-153c-4.919-3.135-11.208-3.135-16.127 0l-240 153c-4.32 2.754-6.936 7.524-6.936 12.648v72c0 11.804 13.049 18.989 23.026 12.672l231.974-146.917 231.974 146.917c9.886 6.261 23.026-.789 23.026-12.672v-72c0-5.124-2.616-9.894-6.937-12.648z"/><path d="m471 15c0-8.284-6.716-15-15-15h-72c-8.284 0-15 6.716-15 15v18.671l102 65.025z"/><path d="m41 277.433v219.567c0 8.28 6.72 15 15 15h41v-192c0-39.15 31.85-71 71-71s71 31.85 71 71v192h217c8.28 0 15-6.72 15-15v-219.567l-215-136.167zm247 83.567h1v-57c0-30.327 24.673-55 55-55s55 24.673 55 55v57h1c8.284 0 15 6.716 15 15s-6.716 15-15 15h-112c-8.284 0-15-6.716-15-15s6.716-15 15-15z"/><path d="m369 304c0-13.785-11.215-25-25-25s-25 11.215-25 25v57h50z"/><path d="m168 279c-22.607 0-41 18.393-41 41v192h82v-192c0-22.607-18.393-41-41-41z"/></g></svg>