<svg id="Capa_1" enable-background="new 0 0 512 512" height="512" viewBox="0 0 620 620" width="512" xmlns="http://www.w3.org/2000/svg"><g><path d="m496.119 210.095h.881c8.284 0 15-6.716 15-15v-110.845c0-8.284-6.716-15-15-15h-482c-8.284 0-15 6.716-15 15v110.845c0 8.284 6.716 15 15 15 17.664 0 32.034 14.371 32.034 32.034v27.742c0 17.664-14.371 32.034-32.034 32.034-8.284 0-15 6.716-15 15v110.845c0 8.284 6.716 15 15 15h482c8.284 0 15-6.716 15-15v-110.845c0-8.284-6.716-15-15-15h-.881c-17.664 0-32.034-14.371-32.034-32.034v-27.742c-.001-17.664 14.37-32.034 32.034-32.034zm-466.119 119.977c26.981-6.726 47.034-31.166 47.034-60.201v-27.742c0-29.035-20.053-53.475-47.034-60.201v-82.678h85.959v313.5h-85.959zm452 .213v82.466h-336.041v-313.501h336.041v82.466c-27.425 6.409-47.916 31.064-47.916 60.414v27.742c0 29.349 20.491 54.004 47.916 60.413z"/><path d="m380.716 141.903h-166.847c-8.284 0-15 6.716-15 15s6.716 15 15 15h166.847c8.284 0 15-6.716 15-15s-6.716-15-15-15z"/><path d="m213.869 237.968h113.961c8.284 0 15-6.716 15-15s-6.716-15-15-15h-113.961c-8.284 0-15 6.716-15 15s6.716 15 15 15z"/><path d="m358.13 340.097h-144.261c-8.284 0-15 6.716-15 15s6.716 15 15 15h144.261c8.284 0 15-6.716 15-15s-6.716-15-15-15z"/><path d="m213.869 304.032h113.961c8.284 0 15-6.716 15-15s-6.716-15-15-15h-113.961c-8.284 0-15 6.716-15 15s6.716 15 15 15z"/></g></svg>